<?xml version="1.0" encoding="UTF-8"?>
<svg id="svg1578" xmlns="http://www.w3.org/2000/svg" viewBox="0 0 512 512">
  <defs>
    <style>
      .cls-1 {
        fill: #000;
      }

      .cls-1, .cls-2 {
        stroke-width: 0px;
      }

      .cls-2 {
        fill: #fff;
      }
    </style>
  </defs>
  <g>
    <path class="cls-1" d="M170.05,239l-.21.99-.63,2.88c-.02.08-.03.16-.03.24l-1.15,20.34-1.04,18.4-.52-.16c-.13-.04-.26-.06-.39-.06l-11.86-.55-11.82-.55-26.64-2.19-26.61-2.19-21.95-3.73-21.87-3.69-7.81-3.13-7.37-2.95-.84-2.19-.63-1.67,3.69-2.43,4.49-2.93,18.14-3.69,18.37-3.71,28.59-3.01,28.59-2.98,20.68-.55,18.82-.5M170.05,222c-.15,0-.3,0-.45,0l-18.82.5-20.68.55c-.44.01-.87.04-1.31.09l-28.59,2.98-28.61,3.01c-.53.06-1.06.14-1.58.24l-18.37,3.71-18.17,3.7c-2.1.43-4.11,1.25-5.91,2.43l-4.49,2.93s-.03.02-.04.03l-3.69,2.43c-6.65,4.38-9.37,12.78-6.55,20.22l.63,1.67s.02.06.03.09l.84,2.19c1.7,4.41,5.16,7.92,9.55,9.67l7.37,2.95,7.8,3.12c1.12.45,2.29.78,3.49.98l21.87,3.69,21.93,3.72c.48.08.97.14,1.45.18l26.61,2.19,26.65,2.19c.2.02.4.03.6.04l11.82.55,10.28.48c1.08.21,2.18.32,3.27.32,3.42,0,6.8-1.03,9.68-3.03,4.31-2.98,7-7.79,7.29-13.02l1.04-18.4,1.08-19.11.37-1.68s.02-.08.03-.12l.21-.99c1.08-5.09-.24-10.4-3.57-14.4-3.23-3.88-8.02-6.12-13.06-6.12h0Z"/>
    <path class="cls-1" d="M243.34,158.07l13.53.03,13.54.02,11.24,3.12,11.29,3.16,11,7.01,11.01,9.14,7.32,14.58,7.35,14.63,3.74,14.84,3.73,14.84s.65,25.91.65,25.92l.62,16.16-15.36,1.18-16.73,1.28-52.32-.19-52.33-.19-14.59-.7-13.07-.62,1.12-16.65,1.2-26.51,3.92-15.27,3.92-15.24,7.27-13.85,7.27-13.8,9.52-8.31,9.46-6.12,12.88-4.23,12.83-4.2M243.34,141.07c-1.8,0-3.58.29-5.29.84l-12.83,4.2-12.89,4.24c-1.38.45-2.7,1.09-3.93,1.88l-9.46,6.12c-.68.44-1.33.93-1.95,1.47l-9.52,8.31c-1.58,1.38-2.88,3.03-3.86,4.88l-7.27,13.8-7.28,13.87c-.61,1.16-1.09,2.4-1.41,3.67l-3.92,15.24-3.92,15.28c-.29,1.13-.46,2.29-.52,3.46l-1.19,26.32-1.11,16.47c-.31,4.56,1.23,9.05,4.28,12.45,3.04,3.41,7.32,5.45,11.89,5.67l13.07.62,14.58.7c.25.01.5.02.75.02l52.33.19,52.32.19s.04,0,.06,0c.43,0,.86-.02,1.3-.05l16.73-1.28,15.36-1.18c9.11-.7,16.03-8.47,15.68-17.6l-.62-16.16h0c-.03-1.47-.16-6.62-.64-25.7-.03-1.25-.2-2.5-.51-3.72l-3.73-14.84-3.75-14.85c-.3-1.2-.74-2.37-1.3-3.48l-7.35-14.63-7.32-14.57c-1.05-2.1-2.53-3.95-4.34-5.45l-11.01-9.14c-.55-.45-1.12-.87-1.72-1.25l-11-7.01c-1.41-.9-2.94-1.58-4.55-2.03l-11.29-3.16-11.28-3.13c-1.47-.41-2.99-.62-4.52-.62l-13.54-.02-13.51-.03s-.03,0-.04,0h0Z"/>
    <path class="cls-1" d="M342.29,237.54l18.48,1.23,20.52,1.36,21.72,1.99,21.69,1.98,18.72,2.9,18.64,2.88,9.12,2.98,8.83,2.9,2.28,2.74,1.59,1.91-3.22,2.62-4.16,3.34-12.97,2.93-13.22,3-23.65,3-23.65,3-22.68,1.15-22.72,1.15s-.1,0-.15.02l-6.12.92-4.52.7-1.23-17.61v-.02l-1.36-19.24c0-.09-.02-.17-.05-.26l-1.2-4.78-.7-2.79M342.29,220.54c-5.02,0-9.8,2.22-13.04,6.1-3.48,4.17-4.77,9.75-3.45,15.03l.7,2.79.88,3.52,1.25,17.66c0,.06,0,.12.01.18l1.23,17.61c.33,4.74,2.63,9.13,6.35,12.1,3.03,2.42,6.78,3.72,10.61,3.72.86,0,1.73-.07,2.59-.2l4.49-.69,5.36-.81,21.94-1.11,22.68-1.15c.43-.02.85-.06,1.28-.11l23.65-3,23.65-3c.54-.07,1.09-.16,1.62-.29l13.22-3,12.96-2.93c2.52-.57,4.87-1.7,6.89-3.32l4.16-3.34s.07-.05.1-.08l3.22-2.62c3.52-2.86,5.75-7.02,6.19-11.53.44-4.52-.94-9.02-3.84-12.51l-1.59-1.91-2.31-2.77c-2.04-2.44-4.72-4.27-7.75-5.26l-8.83-2.9-9.14-2.99c-.88-.29-1.77-.5-2.68-.64l-18.64-2.88-18.72-2.9c-.35-.05-.7-.1-1.06-.13l-21.69-1.98-21.71-1.99c-.14-.01-.29-.02-.43-.03l-20.52-1.36-18.48-1.23c-.38-.03-.76-.04-1.13-.04h0Z"/>
    <path class="cls-1" d="M24.26,264.85l2.39,1.57,4.75,3.11c.13.09.27.15.42.19l13.54,3.76,13.54,3.77c.06.02.13.03.19.03l20.75,2.98,20.75,2.98s.02,0,.03,0,.02,0,.03,0l22.72,2.28v.02l22.72,2.25s.03,0,.04,0,.03,0,.04,0l36.56,1.6,36.56,1.59s.03,0,.04,0,.03,0,.04,0l61.63-.84,61.63-.83s.03,0,.05,0,.03,0,.05,0l25.32-1.99,25.32-1.98s.04-.01.07-.02l25.69-3.01,25.69-3.05c.05,0,.11,0,.16-.02l16.51-3.87v-.02l16.52-3.89c.15-.03.29-.09.42-.16l5.72-3.39,3.43-2.02-.08,14.64-3.09,6.32-3.11,6.28-9.96,7.53-10.12,7.63-15.63,6.79-15.66,6.79-22.43,5.78-22.48,5.8-27.55,4.15-27.58,4.16-25.62,1.78-25.62,1.8-36.49-.87-36.49-.84-20.7-2.09-20.67-2.09-22.69-3.89-22.66-3.85-18.32-4.86-18.29-4.86-16.08-6.95-16.05-6.93-9.31-6.82-9.22-6.75-3.73-6.09-3.64-5.99-.02-17.62M483.5,270.34s0,0,0,0c-.2,0-.39.04-.57.11l-7.47,3.11-7.48,3.13c-.18.08-.35.2-.49.34l-.92.92-.92.92c-.59.57-.61,1.51-.05,2.11l4.65,4.94,4.62,4.92c.28.3.68.47,1.09.47h1.4c.63,0,1.19-.39,1.41-.97l1.67-4.44v-.02l1.65-4.45s.02-.04.03-.06l1.43-4.54,1.41-4.54c.31-.97-.42-1.96-1.44-1.96,0,0,0,0,0,0h0M33.25,291.31h2.59c.48,0,.93-.23,1.22-.62l4.2-5.67,4.2-5.69c.59-.8.26-1.94-.66-2.3l-7.77-3.05-7.77-3.04c-.17-.07-.35-.11-.53-.11h0s-.01,0-.02,0c-.83,0-1.51.67-1.51,1.51v2.19c0,.15.02.3.07.44l2.28,7.63,2.28,7.65c.19.64.78,1.07,1.44,1.07M447.51,306.99h.02l1.07.11c.06,0,.11,0,.17,0,.67,0,1.27-.45,1.45-1.11l2.25-8.39,2.24-8.33,1.41-3.64,1.44-3.73c.38-.95-.28-1.99-1.3-2.06h0s-.04,0-.06,0c-.08,0-.15,0-.23.02l-11.68,1.43-11.68,1.43c-.33.04-.63.18-.87.4l-1.34,1.31-1.34,1.31c-.58.57-.61,1.49-.07,2.09l8.26,9.26,8.26,9.26c.24.27.58.44.94.49l1.07.13M56.36,280.02s-.01,0-.02,0c-.83,0-1.51.67-1.51,1.51v2.74c0,.14.02.28.07.42l3.17,10.9,3.16,10.88c.2.68.82,1.08,1.45,1.08.37,0,.75-.14,1.05-.43l9.67-9.52,9.67-9.52c.72-.71.56-1.91-.32-2.4l-2.46-1.34-2.46-1.34c-.17-.09-.35-.14-.53-.16l-10.38-1.39-10.37-1.39c-.06,0-.12-.01-.18-.02h0M402.91,325.58c.61,0,1.21-.37,1.43-1.03l.91-2.8.91-2.75,6.4-14.98s.01-.01.02-.02l6.41-15.06c.42-1-.32-2.09-1.38-2.09-.03,0-.06,0-.09,0l-18.09.97-18.09.99c-.22.01-.44.07-.63.18l-2.36,1.26-2.4,1.26c-.85.45-1.07,1.56-.45,2.3l13.14,15.63,13.15,15.61c.31.36.73.53,1.14.53M108.36,325.12c.4,0,.81-.16,1.12-.5l2.3-2.58s0,0,0,0,0,0,0,0l2.28-2.58v-.02l11.37-13.22h.02l11.35-13.22c.78-.9.26-2.31-.92-2.48l-6.56-1.02-6.56-1.02s-.1-.01-.15-.02l-14.45-.83-14.43-.81s-.01,0-.02,0-.01,0-.02,0h0s-.04,0-.06,0c-1.05,0-1.79,1.07-1.4,2.06l.86,2.2.86,2.22s.01.02.02.03l6.49,15.42,6.48,15.42c.25.6.82.92,1.39.92M167.04,334.79h1.43c.51,0,.98-.26,1.26-.68l12.12-18.37,12.12-18.38c.16-.25.24-.53.24-.83v-2.77c0-.83-.67-1.51-1.51-1.51h-45.48s-.03,0-.05,0-.03,0-.05,0c-1.08.07-1.74,1.22-1.25,2.19l9.91,19.76,9.91,19.76c.26.51.78.83,1.34.83M318.82,292.25s0,0,0,0c-1.06,0-1.79,1.07-1.4,2.06l.66,1.7.66,1.7c.04.1.09.19.15.28l11.86,18.03,11.86,18.01c.29.46.78.69,1.27.69.45,0,.89-.2,1.2-.59l2.64-3.42,2.62-3.42c.06-.08.1-.16.15-.24l7.74-15.27,7.74-15.26c.1-.21.16-.44.16-.68v-2.07c0-.83-.67-1.51-1.51-1.51h-45.79M282.6,338.74c.53,0,1.02-.28,1.29-.73l12.37-20.25,12.39-20.26c.6-.99-.09-2.25-1.25-2.28l-23.03-.55-23.02-.57s-.01,0-.02,0-.01,0-.02,0h0s0,0,0,0c-.4,0-.78.16-1.06.44l-.78.78v.02l-.76.78c-.46.47-.56,1.17-.26,1.75l10.41,20,10.43,20.02c.25.49.75.8,1.3.81l.99.02.97.03s.03,0,.04,0M204.63,294.23h0c-1.17,0-1.89,1.28-1.29,2.28l11.05,18.29,11.05,18.27c.04.06.08.12.13.18l2.07,2.54,2.06,2.54c.3.38.74.56,1.17.56.52,0,1.04-.27,1.32-.79l10.5-19.34,10.51-19.36c.11-.2.17-.43.18-.66l.05-1.46.07-1.49c.04-.86-.65-1.57-1.5-1.57h-47.35M24.26,247.85c-2.77,0-5.55.68-8.08,2.04-5.5,2.97-8.93,8.72-8.92,14.97l.02,17.62c0,3.11.86,6.16,2.47,8.82l3.64,5.99,3.75,6.13c1.16,1.89,2.67,3.53,4.45,4.84l9.22,6.75,9.32,6.82c1.03.75,2.13,1.39,3.3,1.89l16.05,6.93,16.08,6.95c.77.33,1.57.61,2.38.82l18.29,4.86,18.33,4.86c.5.13,1,.24,1.51.33l22.66,3.86,22.67,3.88c.38.07.77.12,1.16.16l20.67,2.09,20.7,2.09c.44.04.88.07,1.32.08l36.49.84,36.48.87c.14,0,.27,0,.41,0,.4,0,.79-.01,1.19-.04l25.62-1.8,25.61-1.78c.45-.03.91-.08,1.36-.15l27.58-4.16,27.54-4.15c.58-.09,1.15-.2,1.72-.35l22.48-5.8,22.43-5.78c.86-.22,1.7-.51,2.52-.86l15.66-6.79,15.64-6.79c1.23-.53,2.39-1.21,3.46-2.02l10.12-7.63,9.98-7.55c2.11-1.59,3.81-3.65,4.98-6.02l3.11-6.28s.02-.04.03-.06l3.09-6.32c1.13-2.3,1.72-4.82,1.73-7.38l.08-14.64c.03-6.12-3.22-11.78-8.53-14.83-2.62-1.51-5.55-2.26-8.47-2.26-2.99,0-5.97.79-8.63,2.36l-3.43,2.02-3.68,2.18-14.24,3.35c-.24.06-.47.12-.71.18l-14.83,3.48-24.92,2.95-25.63,3.01-24.76,1.93-24.75,1.95-61.19.82-61.21.84-36.09-1.57-36.23-1.59-21.45-2.13c-.24-.03-.48-.06-.72-.09l-22.59-2.27-20.24-2.91-19.82-2.85-12.52-3.49-11.22-3.11-2.73-1.79-2.38-1.56c-2.82-1.85-6.07-2.79-9.33-2.79h0ZM204.66,311.23h0,0Z"/>
  </g>
  <path id="path1487" class="cls-2" d="M243.34,158.08l-12.83,4.2-12.88,4.23-9.46,6.12-9.52,8.31-7.27,13.8-7.27,13.85-3.92,15.24-3.92,15.27-1.2,26.51-1.12,16.65,13.07.62,14.59.7,52.33.19,52.32.19,16.73-1.28,15.36-1.18-.62-16.16s-.65-25.92-.65-25.92l-3.73-14.84-3.74-14.84-7.35-14.63-7.32-14.58-11.01-9.14-11-7.01-11.29-3.16-11.24-3.12-13.54-.02-13.53-.03ZM342.29,237.55l.7,2.79,1.2,4.78c.02.08.04.17.05.26l1.36,19.24v.02l1.23,17.61,4.52-.7,6.12-.92s.1-.01.15-.02l22.72-1.15,22.68-1.15,23.65-3,23.65-3,13.22-3,12.97-2.93,4.16-3.34,3.22-2.62-1.59-1.91-2.28-2.74-8.83-2.9-9.12-2.98-18.64-2.88-18.72-2.9-21.69-1.98-21.72-1.99-20.52-1.36-18.48-1.23ZM170.04,239.01l-18.82.5-20.68.55-28.59,2.98-28.59,3.01-18.37,3.71-18.14,3.69-4.49,2.93-3.69,2.43.63,1.67.84,2.19,7.37,2.95,7.81,3.13,21.87,3.69,21.95,3.73,26.61,2.19,26.64,2.19,11.82.55,11.86.55c.13,0,.26.03.39.06l.52.16,1.04-18.4,1.15-20.34c0-.08.02-.16.03-.24l.63-2.88.21-.99ZM24.25,264.86l.02,17.62,3.64,5.99,3.73,6.09,9.22,6.75,9.31,6.82,16.05,6.93,16.08,6.95,18.29,4.86,18.32,4.86,22.66,3.85,22.69,3.89,20.67,2.09,20.7,2.09,36.49.84,36.49.87,25.62-1.8,25.62-1.78,27.58-4.16,27.55-4.15,22.48-5.8,22.43-5.78,15.66-6.79,15.63-6.79,10.12-7.63,9.96-7.53,3.11-6.28,3.09-6.32.08-14.64-3.43,2.02-5.72,3.39c-.13.07-.27.13-.42.16l-16.52,3.89v.02l-16.51,3.87s-.11.01-.16.02l-25.69,3.05-25.69,3.01s-.04.01-.07.02l-25.32,1.98-25.32,1.99s-.07,0-.1,0l-61.63.83-61.63.84s-.06,0-.08,0l-36.56-1.59-36.56-1.6s-.06,0-.08,0l-22.72-2.25v-.02l-22.72-2.28s-.04,0-.07,0l-20.75-2.98-20.75-2.98c-.07,0-.13-.02-.19-.03l-13.54-3.77-13.54-3.76c-.15-.04-.29-.11-.42-.19l-4.75-3.11-2.39-1.57ZM483.49,270.35c1.02,0,1.75.99,1.44,1.96l-1.41,4.54-1.43,4.54s-.02.04-.03.06l-1.65,4.45v.02l-1.67,4.44c-.22.59-.78.97-1.41.97h-1.39c-.42,0-.82-.17-1.1-.47l-4.62-4.92-4.65-4.94c-.56-.6-.54-1.53.05-2.11l.92-.92.92-.92c.14-.14.3-.26.49-.34l7.48-3.13,7.47-3.11c.18-.08.38-.11.58-.11h0ZM28.69,270.85c.18,0,.36.04.53.11l7.77,3.05,7.77,3.05c.93.36,1.26,1.5.66,2.3l-4.2,5.69-4.2,5.67c-.28.39-.73.62-1.21.62h-2.59c-.66,0-1.25-.43-1.44-1.07l-2.28-7.65-2.28-7.63c-.04-.14-.07-.29-.07-.44v-2.19c0-.84.68-1.52,1.52-1.51h0ZM456.25,279.87c1.02.07,1.67,1.11,1.3,2.06l-1.44,3.73-1.41,3.64-2.24,8.33-2.25,8.39c-.19.72-.88,1.18-1.62,1.1l-1.07-.11s0,0-.02,0l-1.07-.13c-.36-.04-.69-.22-.94-.49l-8.26-9.26-8.26-9.26c-.54-.6-.51-1.52.07-2.09l1.34-1.31,1.34-1.31c.24-.23.55-.37.87-.4l11.68-1.43,11.68-1.43c.1-.01.19-.02.29-.02h0ZM56.36,280.03c.06,0,.12,0,.18.02l10.37,1.39,10.38,1.39c.19.02.37.08.53.16l2.46,1.34,2.46,1.34c.89.49,1.05,1.69.32,2.4l-9.67,9.52-9.67,9.52c-.81.79-2.17.44-2.49-.65l-3.16-10.88-3.17-10.9c-.04-.14-.07-.28-.07-.42v-2.74c0-.84.68-1.52,1.52-1.51h0ZM93.71,286.85s.02,0,.03,0l14.43.81,14.45.83s.1,0,.15.02l6.56,1.02,6.56,1.02c1.18.17,1.71,1.58.92,2.48l-11.35,13.22s0,0-.02,0l-11.37,13.22v.02l-2.28,2.58s0,0-.02,0l-2.3,2.58c-.74.82-2.08.6-2.51-.42l-6.48-15.42-6.5-15.42s0-.02-.02-.03l-.86-2.22-.86-2.2c-.4-1.01.37-2.1,1.46-2.06h0ZM417.51,286.85c1.11-.06,1.91,1.06,1.47,2.09l-6.41,15.06s0,.01-.02.02l-6.4,14.98-.91,2.75-.91,2.8c-.37,1.11-1.81,1.4-2.58.5l-13.15-15.61-13.14-15.63c-.62-.74-.4-1.85.45-2.3l2.4-1.26,2.36-1.26c.19-.11.41-.17.63-.18l18.09-.99,18.09-.97ZM147.11,292.26s.07,0,.1,0h45.48c.83,0,1.51.67,1.51,1.51v2.77c0,.29-.08.58-.24.83l-12.12,18.38-12.12,18.37c-.28.43-.75.68-1.26.68h-1.42c-.57,0-1.09-.32-1.34-.83l-9.91-19.76-9.91-19.76c-.49-.97.17-2.12,1.25-2.19h0ZM318.82,292.26h45.79c.83,0,1.51.67,1.51,1.51v2.07c0,.24-.06.47-.16.68l-7.74,15.26-7.74,15.27c-.04.09-.09.17-.15.24l-2.62,3.42-2.64,3.42c-.63.83-1.9.78-2.46-.1l-11.86-18.01-11.86-18.03c-.06-.09-.11-.18-.15-.28l-.66-1.7-.66-1.7c-.39-.99.34-2.06,1.41-2.06h0ZM261.32,294.11s.02,0,.03,0l23.02.57,23.03.55c1.15.03,1.84,1.3,1.25,2.28l-12.39,20.26-12.37,20.25c-.28.46-.79.74-1.33.73l-.97-.03-.99-.02c-.55-.01-1.04-.32-1.3-.81l-10.43-20.02-10.41-20c-.3-.58-.2-1.28.26-1.75l.76-.78v-.02l.78-.78c.28-.28.67-.44,1.07-.44h0ZM204.63,294.24h47.34c.86,0,1.54.71,1.51,1.57l-.07,1.49-.05,1.46c0,.23-.07.46-.18.66l-10.51,19.36-10.5,19.34c-.51.94-1.82,1.06-2.49.23l-2.06-2.54-2.07-2.54c-.05-.06-.09-.12-.13-.18l-11.05-18.27-11.05-18.29c-.61-1.01.12-2.29,1.3-2.28h0Z"/>
</svg>