<?xml version="1.0" encoding="utf-8"?>
<!-- Generator: Adobe Illustrator 27.3.1, SVG Export Plug-In . SVG Version: 6.00 Build 0)  -->
<svg version="1.1" id="图层_1" xmlns="http://www.w3.org/2000/svg" xmlns:xlink="http://www.w3.org/1999/xlink" x="0px" y="0px"
	 viewBox="0 0 256 256" style="enable-background:new 0 0 256 256;" xml:space="preserve">
<style type="text/css">
	.st0{fill:#FFFFFF;}
	.st1{fill:#29ABE2;}
	.st2{fill:none;stroke:#29ABE2;stroke-width:12;stroke-miterlimit:10;}
</style>
<g>
	<circle class="st0" cx="32" cy="128" r="18"/>
	<path class="st1" d="M32,116c6.6,0,12,5.4,12,12s-5.4,12-12,12s-12-5.4-12-12S25.4,116,32,116 M32,104c-13.3,0-24,10.8-24,24
		s10.8,24,24,24s24-10.8,24-24S45.3,104,32,104L32,104z"/>
</g>
<path class="st2" d="M206,194h-66c-6.6,0-12-5.4-12-12v-42c0-6.6-5.4-12-12-12H50"/>
<path class="st2" d="M206,62h-66c-6.6,0-12,5.4-12,12v42c0,6.6-5.4,12-12,12H50"/>
<g>
	<circle class="st0" cx="224" cy="62" r="18"/>
	<path class="st1" d="M224,50c6.6,0,12,5.4,12,12s-5.4,12-12,12s-12-5.4-12-12S217.4,50,224,50 M224,38c-13.3,0-24,10.8-24,24
		s10.8,24,24,24s24-10.8,24-24S237.3,38,224,38L224,38z"/>
</g>
<g>
	<circle class="st0" cx="224" cy="194" r="18"/>
	<path class="st1" d="M224,182c6.6,0,12,5.4,12,12s-5.4,12-12,12s-12-5.4-12-12S217.4,182,224,182 M224,170c-13.3,0-24,10.8-24,24
		s10.8,24,24,24s24-10.8,24-24S237.3,170,224,170L224,170z"/>
</g>
</svg>
