<?xml version="1.0" encoding="utf-8"?>
<!-- Generator: Adobe Illustrator 23.0.0, SVG Export Plug-In . SVG Version: 6.00 Build 0)  -->
<svg version="1.1" id="图层_1" xmlns="http://www.w3.org/2000/svg" xmlns:xlink="http://www.w3.org/1999/xlink" x="0px" y="0px"
	 viewBox="0 0 800 450" style="enable-background:new 0 0 800 450;" xml:space="preserve">
<style type="text/css">
	.st0{fill:#FFFFFF;}
	.st1{fill:#29ABE2;}
	.st2{fill:none;stroke:#29ABE2;stroke-width:12;stroke-miterlimit:10;}
	.st3{fill:none;}
	.st4{font-family:'Impact';}
	.st5{font-size:90px;}
	.st6{font-size:72px;}
	.st7{fill:#FF9933;}
	.st8{fill:#CB5900;}
</style>
<g>
	<circle class="st0" cx="137" cy="138" r="18"/>
	<path class="st1" d="M137,126c6.6,0,12,5.4,12,12s-5.4,12-12,12s-12-5.4-12-12S130.4,126,137,126 M137,114c-13.3,0-24,10.8-24,24
		s10.8,24,24,24s24-10.8,24-24S150.3,114,137,114L137,114z"/>
</g>
<path class="st2" d="M311,204h-66c-6.6,0-12-5.4-12-12v-42c0-6.6-5.4-12-12-12h-66"/>
<path class="st2" d="M311,72h-66c-6.6,0-12,5.4-12,12v42c0,6.6-5.4,12-12,12h-66"/>
<g>
	<circle class="st0" cx="329" cy="72" r="18"/>
	<path class="st1" d="M329,60c6.6,0,12,5.4,12,12s-5.4,12-12,12s-12-5.4-12-12S322.4,60,329,60 M329,48c-13.3,0-24,10.8-24,24
		s10.8,24,24,24s24-10.8,24-24S342.3,48,329,48L329,48z"/>
</g>
<g>
	<circle class="st0" cx="329" cy="204" r="18"/>
	<path class="st1" d="M329,192c6.6,0,12,5.4,12,12s-5.4,12-12,12s-12-5.4-12-12S322.4,192,329,192 M329,180c-13.3,0-24,10.8-24,24
		s10.8,24,24,24s24-10.8,24-24S342.3,180,329,180L329,180z"/>
</g>
<path class="st2" d="M503,270h-78v-54c0-6.6-5.4-12-12-12h-66"/>
<path class="st2" d="M503,138h-66c-6.6,0-12,5.4-12,12v42c0,6.6-5.4,12-12,12h-66"/>
<g>
	<circle class="st0" cx="521" cy="138" r="18"/>
	<path class="st1" d="M521,126c6.6,0,12,5.4,12,12s-5.4,12-12,12s-12-5.4-12-12S514.4,126,521,126 M521,114c-13.3,0-24,10.8-24,24
		s10.8,24,24,24s24-10.8,24-24S534.3,114,521,114L521,114z"/>
</g>
<g>
	<circle class="st0" cx="521" cy="270" r="18"/>
	<path class="st1" d="M521,258c6.6,0,12,5.4,12,12s-5.4,12-12,12s-12-5.4-12-12S514.4,258,521,258 M521,246c-13.3,0-24,10.8-24,24
		s10.8,24,24,24s24-10.8,24-24S534.3,246,521,246L521,246z"/>
</g>
<path class="st2" d="M695,72h-66c-6.6,0-12,5.4-12,12v42c0,6.6-5.4,12-12,12h-66"/>
<g>
	<circle class="st0" cx="713" cy="72" r="18"/>
	<path class="st1" d="M713,60c6.6,0,12,5.4,12,12s-5.4,12-12,12s-12-5.4-12-12S706.4,60,713,60 M713,48c-13.3,0-24,10.8-24,24
		s10.8,24,24,24s24-10.8,24-24S726.3,48,713,48L713,48z"/>
</g>
<path class="st2" d="M695,336h-66c-6.6,0-12-5.4-12-12v-42c0-6.6-5.4-12-12-12h-66"/>
<path class="st2" d="M695,204h-66c-6.6,0-12,5.4-12,12v42c0,6.6-5.4,12-12,12h-66"/>
<g>
	<circle class="st0" cx="713" cy="204" r="18"/>
	<path class="st1" d="M713,192c6.6,0,12,5.4,12,12s-5.4,12-12,12s-12-5.4-12-12S706.4,192,713,192 M713,180c-13.3,0-24,10.8-24,24
		s10.8,24,24,24s24-10.8,24-24S726.3,180,713,180L713,180z"/>
</g>
<g>
	<circle class="st0" cx="713" cy="336" r="18"/>
	<path class="st1" d="M713,324c6.6,0,12,5.4,12,12s-5.4,12-12,12s-12-5.4-12-12S706.4,324,713,324 M713,312c-13.3,0-24,10.8-24,24
		s10.8,24,24,24s24-10.8,24-24S726.3,312,713,312L713,312z"/>
</g>
<path class="st2" d="M503,402h-66c-6.6,0-12-5.4-12-12V270"/>
<g>
	<circle class="st0" cx="521" cy="402" r="18"/>
	<path class="st1" d="M521,390c6.6,0,12,5.4,12,12s-5.4,12-12,12s-12-5.4-12-12S514.4,390,521,390 M521,378c-13.3,0-24,10.8-24,24
		s10.8,24,24,24s24-10.8,24-24S534.3,378,521,378L521,378z"/>
</g>
<rect x="28.3" y="350" class="st1" width="282.59127" height="76"/>
<g>
	<text transform="matrix(1 0 0 1 28.3 343.5737)" class="st7 st4 st5">RW-</text>
	<text transform="matrix(1 0 0 1 28.3 415.5737)" class="st8 st4 st6">NodeTree</text>
</g>
</svg>
